<?xml version="1.0"?>
<svg xmlns="http://www.w3.org/2000/svg" height="512px" viewBox="0 -32 511.96343 511" width="512px"><path d="m191.789062 374.589844c7.679688-1.710938 15.359376-3.421875 23.039063-5.128906 5.953125-1.328126 11.90625-2.652344 17.859375-3.980469 6.207031-1.378907 12.46875-1.84375 17.84375-5.539063 4.316406-2.972656 11.558594-8.117187 11.558594-14.042968 0-4.847657-3.238282-9.34375-8.675782-12.050782-15.003906-7.460937-40.496093-28.609375-42.625-86.398437-.09375-2.46875-1.007812-4.617188-2.570312-6.042969-24.730469-22.585938-59.566406-63.507812-33.050781-96.777344 1.800781-2.269531 3.820312-4.363281 6.015625-6.246094 2.503906-2.15625 5.339844-4.179687 6.664062-7.203124 1.828125-4.199219.859375-9.71875 1.226563-14.210938.410156-5.183594.757812-10.347656 1.445312-15.515625 1.214844-9.269531 3.089844-18.46875 5.804688-27.417969 4.535156-14.964844 11.445312-29.238281 21.039062-41.628906 5.027344-6.5 10.761719-12.195312 16.914063-17.617188 3.308594-2.917968 6.785156-5.757812 10.585937-8.394531-24.613281-7.027343-45.109375-5.859375-45.355469-5.8125-.386718.019531-.796874.007813-1.179687 0-.558594-.066406-56.175781-3.136719-93.972656 32.328125-23.808594 22.355469-35.882813 55.46875-35.882813 98.441406 0 99.730469-25.289062 138.652344-46.492187 153.726563-.15625.113281-.429688.3125-.402344.945313.007813.246093.109375 1.09375.960937 1.605468 19.464844 11.695313 50.6875 24.597656 88.902344 19.777344.503906-.0625 1.007813-.089844 1.5-.089844 4.910156 0 9.308594 3.015625 11.015625 7.734375 1.867188 5.15625-.054687 10.84375-4.679687 13.8125l-97.945313 56.640625c-13.160156 7.617188-21.332031 21.789063-21.332031 36.984375v11.691407c0 7.882812 6.417969 14.300781 14.300781 14.300781h129.746094s0-14.300781 0-14.371094c-.039063-28.78125 19.582031-53.25 47.742187-59.519531zm0 0" fill="#FFFFFF"/><path d="m478.492188 392.445312-56.769532-12.644531c-1.050781-.238281-2.054687-.660156-2.960937-1.246093-8.074219-5.191407-24.878907-16.007813-24.878907-32.65625 0-11.757813 7.214844-22.65625 18.824219-28.425782 11.367188-5.648437 30.703125-22.355468 32.496094-70.703125.273437-7.386719 3.28125-14.070312 8.472656-18.839843 7.78125-7.160157 26.835938-26.1875 35.613281-47.964844 4.691407-11.628906-1.957031-23.433594-10.632812-29.960938-7.121094-5.359375-11.246094-13.203125-11.320312-21.523437-.253907-29.421875-6.269532-60.011719-24.28125-83.976563-12.875-17.132812-31.070313-29.230468-51.246094-36.097656-15.808594-5.375-32.613282-7.789062-49.289063-7.789062-32.660156.011718-66.917969 4.023437-93.238281 25.492187-33.609375 27.519531-40.914062 70.691406-42.132812 95.183594-.097657 2.332031-.210938 4.65625-.238282 7.152343 0 .191407-.0625.375-.070312.558594-.257813 8.191406-4.214844 15.761719-11.027344 20.824219-5.246094 3.894531-9.554688 9.445313-11.390625 15.773437-2.132813 7.351563 0 13.035157 3.179687 19.648438 7.898438 16.4375 19.628907 30.390625 32.980469 42.679688 5.183594 4.753906 8.191407 11.4375 8.472657 18.832031 1.785156 48.347656 21.128906 65.050781 32.496093 70.703125 11.609375 5.777344 18.816407 16.667968 18.816407 28.425781 0 16.636719-16.796876 27.464844-24.871094 32.65625-.902344.578125-1.910156.996094-2.960938 1.242187l-56.785156 12.644532c-19.695312 4.390625-33.457031 21.550781-33.457031 41.730468v14.316407h335.371093c7.882813 0 14.300782-6.417969 14.300782-14.300781 0-20.1875-13.769532-37.347657-33.472656-41.734376zm0 0" fill="#FFFFFF"/></svg>
